# xmcd
#
# Track frame offsets:
#	150
#	14249
#	27063
#	44736
#	61216
#	79808
#	100017
#	119542
#	141026
#	152667
#	169346
#	187711
#	207734
#
# Disc length: 3012 seconds
#
# Revision: 1
# Processed by: cddbd v1.5.2PL0 Copyright (c) Steve Scherf et al.
# Submitted via: audiograbber 1.83.01
#
DISCID=b30bc20d
DTITLE=Robert Leroux - Parce Que L'amour Est Grand
DYEAR=1900
DGENRE=Country
TTITLE0=J'ai Pas L'accent(Robert Leroux-Robert Leroux)
TTITLE1=Avec Mon Passeport(Robert Leroux-Robert Leroux)
TTITLE2=La Cité Des Anges(Robert Leroux-Robert Leroux)
TTITLE3=Grand Maman(Robert Leroux-Robert Leroux)
TTITLE4=Ce Qu'un Homme Veut(Twain-Lange M.Mallory)
TTITLE5=Pourquoi(Paul Daraiche-Paul Daraiche)
TTITLE6=Fille De La Mer(Robert Leroux-Robert Leroux)
TTITLE7=Parce Que L'amour Est Grand(Robert Leroux-Robert Leroux)
TTITLE8=Baton Rouge(G.Brooks-J.Egli)
TTITLE9=Mes Intentions Sont Pacifiques(M.Mallory-J.Manson)
TTITLE10=Parce Que Tu M'as Dit Je T'aime(J.Bettis-A.Hammond-S.Sarrazin)
TTITLE11=Ma Vie(Alaine Barrière-Alain Barrière)
TTITLE12=Toujours L'amour(D.Billard-B Golden_J.Seath-Smith-R.Hebert)
EXTD=
EXTT0=
EXTT1=
EXTT2=
EXTT3=
EXTT4=
EXTT5=
EXTT6=
EXTT7=
EXTT8=
EXTT9=
EXTT10=
EXTT11=
EXTT12=
PLAYORDER=
